<svg width="183" height="39" viewBox="0 0 183 39" fill="none" xmlns="http://www.w3.org/2000/svg">
<path d="M163.276 38.4483C152.978 38.4483 144.552 30.0224 144.552 19.7241C144.552 9.42586 152.978 1 163.276 1C173.574 1 182 9.42586 182 19.7241C182 30.0224 173.574 38.4483 163.276 38.4483Z" stroke="#001A34" stroke-miterlimit="10" stroke-linecap="round"/>
<path d="M172.118 15.2514C171.91 14.4192 171.285 13.795 170.453 13.587C168.997 13.1709 163.276 13.1709 163.276 13.1709C163.276 13.1709 157.554 13.1709 156.098 13.587C155.266 13.795 154.642 14.4192 154.434 15.2514C154.018 16.7077 154.018 19.7243 154.018 19.7243C154.018 19.7243 154.018 22.741 154.434 24.1973C154.642 25.0295 155.266 25.6537 156.098 25.8617C157.554 26.2778 163.276 26.2778 163.276 26.2778C163.276 26.2778 168.997 26.2778 170.453 25.8617C171.285 25.6537 171.91 25.0295 172.118 24.1973C172.534 22.741 172.534 19.7243 172.534 19.7243C172.534 19.7243 172.534 16.7077 172.118 15.2514ZM161.403 22.4289V16.9157L166.188 19.6203L161.403 22.4289Z" stroke="#001A34" stroke-miterlimit="10" stroke-linecap="round"/>
<path d="M115.425 38.4483C105.127 38.4483 96.7012 30.0224 96.7012 19.7241C96.7012 9.42586 105.127 1 115.425 1C125.724 1 134.149 9.42586 134.149 19.7241C134.149 30.0224 125.828 38.4483 115.425 38.4483Z" stroke="#001A34" stroke-miterlimit="10" stroke-linecap="round"/>
<path d="M124.995 17.9559C122.499 21.1806 122.291 20.8686 124.267 22.741C126.244 24.5094 126.66 25.4456 126.66 25.5496C126.66 25.5496 127.492 27.0059 125.724 27.0059H122.499C121.771 27.11 120.939 26.4858 120.939 26.4858C119.69 25.6536 118.546 23.4692 117.714 23.7812C117.714 23.7812 116.778 24.0933 116.882 25.9657C116.882 26.3818 116.674 26.5898 116.674 26.5898C116.674 26.5898 116.466 26.7979 116.049 26.9019H114.593C111.368 27.11 108.56 24.1973 108.56 24.1973C108.56 24.1973 105.439 20.9726 102.839 14.7312C102.631 14.3151 102.839 14.1071 102.839 14.1071C102.839 14.1071 103.047 13.899 103.567 13.899H106.999C107.312 13.899 107.52 14.1071 107.52 14.1071C107.52 14.1071 107.728 14.2111 107.832 14.5232C108.352 15.9795 109.08 17.2278 109.08 17.2278C110.328 19.8284 111.16 20.2444 111.681 20.0364C111.681 20.0364 112.305 19.6203 112.201 16.4996C112.201 15.3554 111.785 14.8352 111.785 14.8352C111.472 14.4192 110.952 14.3151 110.744 14.3151C110.536 14.3151 110.848 13.795 111.264 13.587C111.889 13.2749 112.929 13.2749 114.281 13.2749C115.321 13.2749 115.633 13.3789 115.945 13.4829C117.194 13.795 116.778 14.8352 116.778 17.5398C116.778 18.372 116.57 19.6203 117.194 19.9324C117.506 20.1404 118.13 19.9324 119.69 17.2278C119.69 17.2278 120.418 15.8755 121.043 14.4192C121.147 14.1071 121.355 14.0031 121.355 14.0031C121.355 14.0031 121.563 13.899 121.875 13.899H125.516C126.66 13.795 126.764 14.3151 126.764 14.3151C127.076 14.7312 126.556 15.9795 124.995 17.9559Z" stroke="#001A34" stroke-miterlimit="10" stroke-linecap="round"/>
<path d="M67.5747 38.4483C57.2764 38.4483 48.8506 30.0224 48.8506 19.7241C48.8506 9.42586 57.2764 1 67.5747 1C77.873 1 86.2989 9.42586 86.2989 19.7241C86.2989 30.0224 77.873 38.4483 67.5747 38.4483Z" stroke="#001A34" stroke-miterlimit="10" stroke-linecap="round"/>
<path d="M70.9036 19.7246H68.7192V27.6304H65.3904V19.7246H63.8301V16.916H65.3904V15.0436C65.3904 13.7953 66.0146 11.7148 68.7192 11.7148H71.1117V14.4194H69.3433C69.0312 14.4194 68.6151 14.5235 68.6151 15.1476V16.812H71.1117L70.9036 19.7246Z" stroke="#001A34" stroke-miterlimit="10" stroke-linecap="round"/>
<path d="M19.7241 38.4483C9.42586 38.4483 1 30.0224 1 19.7241C1 9.42586 9.42586 1 19.7241 1C30.0224 1 38.4483 9.42586 38.4483 19.7241C38.4483 30.0224 30.0224 38.4483 19.7241 38.4483Z" stroke="#001A34" stroke-miterlimit="10" stroke-linecap="round"/>
<path d="M15.7715 19.7244C15.7715 17.5399 17.5399 15.8755 19.6204 15.8755C21.8048 15.8755 23.4692 17.6439 23.4692 19.7244C23.4692 21.9089 21.7008 23.5732 19.6204 23.5732C17.5399 23.5732 15.7715 21.8049 15.7715 19.7244ZM15.8755 10.3623C14.8353 10.3623 14.2112 10.5704 13.587 10.7784C12.9629 10.9865 12.4428 11.2985 11.9226 11.8186C11.4025 12.3388 11.0905 12.8589 10.8824 13.483C10.6744 14.1072 10.4663 14.7313 10.4663 15.7715C10.4663 16.8117 10.3623 17.1238 10.3623 19.6204C10.3623 22.1169 10.3623 22.533 10.4663 23.4692C10.4663 24.5095 10.6744 25.1336 10.8824 25.7577C11.0905 26.3819 11.4025 26.902 11.9226 27.4221C12.4428 27.9422 12.9629 28.2543 13.587 28.4623C14.2112 28.6704 14.8353 28.8784 15.8755 28.8784C16.9158 28.8784 17.2278 28.9824 19.7244 28.9824C22.2209 28.9824 22.637 28.9824 23.5732 28.8784C24.6135 28.8784 25.2376 28.6704 25.8617 28.4623C26.4859 28.2543 27.006 27.9422 27.5261 27.4221C28.0462 26.902 28.3583 26.3819 28.5663 25.7577C28.7744 25.1336 28.9824 24.5095 28.9824 23.4692C28.9824 22.429 29.0864 22.1169 29.0864 19.6204C29.0864 17.1238 29.0864 16.7077 28.9824 15.7715C28.9824 14.7313 28.7744 14.1072 28.5663 13.483C28.3583 12.8589 28.0462 12.3388 27.5261 11.8186C27.006 11.2985 26.4859 10.9865 25.8617 10.7784C25.2376 10.5704 24.6135 10.3623 23.5732 10.3623C22.533 10.3623 22.2209 10.2583 19.7244 10.2583C17.1238 10.3623 16.8117 10.3623 15.8755 10.3623Z" stroke="#001A34" stroke-miterlimit="10" stroke-linecap="round"/>
<path d="M23.5732 14.7312C23.5732 15.3553 24.0934 15.8754 24.7175 15.8754C25.3416 15.8754 25.8617 15.3553 25.8617 14.7312C25.8617 14.107 25.3416 13.5869 24.7175 13.5869C24.0934 13.5869 23.5732 14.107 23.5732 14.7312Z" fill="#001A34"/>
</svg>
